<svg width="24" height="24" viewBox="0 0 24 24" fill="none" xmlns="http://www.w3.org/2000/svg">
<g clip-path="url(#clip0_1_15)">
<path d="M7 10H12V15H7M19 19H5V8H19M19 3H18V1H16V3H8V1H6V3H5C3.89 3 3 3.9 3 5V19C3 19.5304 3.21071 20.0391 3.58579 20.4142C3.96086 20.7893 4.46957 21 5 21H19C19.5304 21 20.0391 20.7893 20.4142 20.4142C20.7893 20.0391 21 19.5304 21 19V5C21 4.46957 20.7893 3.96086 20.4142 3.58579C20.0391 3.21071 19.5304 3 19 3Z" fill="black"/>
<path d="M13 9H6V16M13 9V18M13 9H15M13 18H6V16M13 18H15M15 18V9M15 18H16.5M15 9H16.5M16.5 9H18V18H16.5M16.5 9V16M16.5 18V16M16.5 16H6M70 13V9H82V13M70 13H82M70 13V15M82 13V15M82 15H70M82 15V17M70 15V17M70 17V18H82V17M70 17H82" stroke="white" stroke-width="2"/>
</g>
<defs>
<clipPath id="clip0_1_15">
<rect width="24" height="24" fill="white"/>
</clipPath>
</defs>
</svg>
